<svg width="225" height="225" viewBox="0 0 225 225" fill="none" xmlns="http://www.w3.org/2000/svg">
<circle cx="112.5" cy="112.5" r="107.5" fill="#2C2C2C" stroke="url(#paint0_linear_35_50)" stroke-width="10"/>
<mask id="path-2-outside-1_35_50" maskUnits="userSpaceOnUse" x="38" y="61" width="154" height="102" fill="black">
<rect fill="white" x="38" y="61" width="154" height="102"/>
<path d="M61.312 153.368C61.312 158.403 56.4053 160.92 46.592 160.92C44.4587 160.92 43.1787 159.853 42.752 157.72C42.4107 155.501 42.24 152.429 42.24 148.504C42.24 140.227 43.904 129.987 47.232 117.784C52.7787 97.6453 58.7093 85.784 65.024 82.2C65.8773 81.688 66.816 81.432 67.84 81.432C68.864 81.432 69.376 83.096 69.376 86.424C69.376 89.752 69.2053 92.696 68.864 95.256C68.1813 100.376 66.944 106.989 65.152 115.096C63.4453 123.203 62.592 127.981 62.592 129.432L61.312 153.368ZM70.016 118.936C70.016 117.827 70.6133 117.101 71.808 116.76C73.088 116.419 74.6667 116.12 76.544 115.864C78.4213 115.523 80.4693 115.053 82.688 114.456C84.9067 113.859 86.9547 112.749 88.832 111.128C93.184 107.373 95.36 101.101 95.36 92.312C95.36 86.68 93.44 82.3707 89.6 79.384C85.8453 76.3973 80.384 74.904 73.216 74.904C66.1333 74.904 59.4773 76.3973 53.248 79.384C50.944 80.4933 48.8533 81.5173 46.976 82.456C45.184 83.3947 43.52 83.864 41.984 83.864C40.448 83.864 39.68 83.3947 39.68 82.456C39.68 81.0053 41.088 78.616 43.904 75.288C46.72 72.216 51.1573 69.3573 57.216 66.712C63.36 64.0667 69.8027 62.744 76.544 62.744C89.2587 62.6587 99.1573 65.6453 106.24 71.704C112.384 76.9947 115.456 83.864 115.456 92.312C115.456 100.675 112.427 108.184 106.368 114.84C100.309 121.411 92.7147 124.696 83.584 124.696C74.5387 124.696 70.016 122.776 70.016 118.936ZM188.962 128.792C190.242 128.792 190.882 130.243 190.882 133.144C190.882 139.203 188.066 145.091 182.434 150.808C176.802 156.44 169.933 159.299 161.826 159.384C156.109 159.384 149.495 157.123 141.986 152.6C136.61 158.317 129.911 161.176 121.89 161.176C116.599 161.176 112.717 159.853 110.242 157.208C107.767 154.563 106.53 151.064 106.53 146.712C106.53 142.36 108.109 139.117 111.266 136.984C114.509 134.765 118.605 133.656 123.554 133.656C126.199 133.656 128.674 133.784 130.978 134.04C130.978 123.629 132.13 113.475 134.434 103.576C131.618 102.125 129.186 100.504 127.138 98.712C125.175 96.92 124.194 95.512 124.194 94.488C124.194 91.7573 124.791 90.392 125.986 90.392C127.693 90.392 129.442 90.904 131.234 91.928C133.111 92.8667 135.117 93.592 137.25 94.104C142.541 78.8293 149.794 68.9733 159.01 64.536C162.253 63 165.666 62.232 169.25 62.232C182.733 62.232 189.474 67.9067 189.474 79.256C189.474 85.7413 187.042 91.3307 182.178 96.024C175.437 102.509 165.197 105.923 151.458 106.264C150.519 113.432 150.05 121.923 150.05 131.736C150.05 134.125 149.751 136.813 149.154 139.8C152.141 141.336 155.042 142.744 157.858 144.024C160.674 145.304 164.13 145.944 168.226 145.944C170.359 145.944 172.45 145.048 174.498 143.256C176.631 141.464 178.594 139.501 180.386 137.368C182.263 135.235 183.927 133.272 185.378 131.48C186.829 129.688 188.023 128.792 188.962 128.792ZM168.994 74.776C161.826 74.776 156.621 81.6027 153.378 95.256C159.522 94.744 164.685 93.0373 168.866 90.136C173.133 87.1493 175.266 84.1627 175.266 81.176C175.266 76.9093 173.175 74.776 168.994 74.776ZM118.946 147.608C119.031 149.997 120.695 151.192 123.938 151.192C127.181 151.192 129.229 149.315 130.082 145.56C127.693 144.365 125.73 143.768 124.194 143.768C120.781 143.768 119.031 145.048 118.946 147.608Z"/>
</mask>
<path d="M61.312 153.368C61.312 158.403 56.4053 160.92 46.592 160.92C44.4587 160.92 43.1787 159.853 42.752 157.72C42.4107 155.501 42.24 152.429 42.24 148.504C42.24 140.227 43.904 129.987 47.232 117.784C52.7787 97.6453 58.7093 85.784 65.024 82.2C65.8773 81.688 66.816 81.432 67.84 81.432C68.864 81.432 69.376 83.096 69.376 86.424C69.376 89.752 69.2053 92.696 68.864 95.256C68.1813 100.376 66.944 106.989 65.152 115.096C63.4453 123.203 62.592 127.981 62.592 129.432L61.312 153.368ZM70.016 118.936C70.016 117.827 70.6133 117.101 71.808 116.76C73.088 116.419 74.6667 116.12 76.544 115.864C78.4213 115.523 80.4693 115.053 82.688 114.456C84.9067 113.859 86.9547 112.749 88.832 111.128C93.184 107.373 95.36 101.101 95.36 92.312C95.36 86.68 93.44 82.3707 89.6 79.384C85.8453 76.3973 80.384 74.904 73.216 74.904C66.1333 74.904 59.4773 76.3973 53.248 79.384C50.944 80.4933 48.8533 81.5173 46.976 82.456C45.184 83.3947 43.52 83.864 41.984 83.864C40.448 83.864 39.68 83.3947 39.68 82.456C39.68 81.0053 41.088 78.616 43.904 75.288C46.72 72.216 51.1573 69.3573 57.216 66.712C63.36 64.0667 69.8027 62.744 76.544 62.744C89.2587 62.6587 99.1573 65.6453 106.24 71.704C112.384 76.9947 115.456 83.864 115.456 92.312C115.456 100.675 112.427 108.184 106.368 114.84C100.309 121.411 92.7147 124.696 83.584 124.696C74.5387 124.696 70.016 122.776 70.016 118.936ZM188.962 128.792C190.242 128.792 190.882 130.243 190.882 133.144C190.882 139.203 188.066 145.091 182.434 150.808C176.802 156.44 169.933 159.299 161.826 159.384C156.109 159.384 149.495 157.123 141.986 152.6C136.61 158.317 129.911 161.176 121.89 161.176C116.599 161.176 112.717 159.853 110.242 157.208C107.767 154.563 106.53 151.064 106.53 146.712C106.53 142.36 108.109 139.117 111.266 136.984C114.509 134.765 118.605 133.656 123.554 133.656C126.199 133.656 128.674 133.784 130.978 134.04C130.978 123.629 132.13 113.475 134.434 103.576C131.618 102.125 129.186 100.504 127.138 98.712C125.175 96.92 124.194 95.512 124.194 94.488C124.194 91.7573 124.791 90.392 125.986 90.392C127.693 90.392 129.442 90.904 131.234 91.928C133.111 92.8667 135.117 93.592 137.25 94.104C142.541 78.8293 149.794 68.9733 159.01 64.536C162.253 63 165.666 62.232 169.25 62.232C182.733 62.232 189.474 67.9067 189.474 79.256C189.474 85.7413 187.042 91.3307 182.178 96.024C175.437 102.509 165.197 105.923 151.458 106.264C150.519 113.432 150.05 121.923 150.05 131.736C150.05 134.125 149.751 136.813 149.154 139.8C152.141 141.336 155.042 142.744 157.858 144.024C160.674 145.304 164.13 145.944 168.226 145.944C170.359 145.944 172.45 145.048 174.498 143.256C176.631 141.464 178.594 139.501 180.386 137.368C182.263 135.235 183.927 133.272 185.378 131.48C186.829 129.688 188.023 128.792 188.962 128.792ZM168.994 74.776C161.826 74.776 156.621 81.6027 153.378 95.256C159.522 94.744 164.685 93.0373 168.866 90.136C173.133 87.1493 175.266 84.1627 175.266 81.176C175.266 76.9093 173.175 74.776 168.994 74.776ZM118.946 147.608C119.031 149.997 120.695 151.192 123.938 151.192C127.181 151.192 129.229 149.315 130.082 145.56C127.693 144.365 125.73 143.768 124.194 143.768C120.781 143.768 119.031 145.048 118.946 147.608Z" fill="url(#paint1_linear_35_50)"/>
<path d="M61.312 153.368L60.3134 153.315L60.312 153.341V153.368H61.312ZM42.752 157.72L41.7636 157.872L41.767 157.894L41.7714 157.916L42.752 157.72ZM47.232 117.784L46.2679 117.518L46.2672 117.521L47.232 117.784ZM65.024 82.2L65.5176 83.0697L65.5281 83.0637L65.5385 83.0575L65.024 82.2ZM68.864 95.256L67.8728 95.1238L67.8728 95.1238L68.864 95.256ZM65.152 115.096L64.1755 114.88L64.1735 114.89L65.152 115.096ZM62.592 129.432L63.5906 129.485L63.592 129.459V129.432H62.592ZM71.808 116.76L71.5503 115.794L71.5418 115.796L71.5333 115.798L71.808 116.76ZM76.544 115.864L76.6791 116.855L76.7011 116.852L76.7229 116.848L76.544 115.864ZM82.688 114.456L82.948 115.422L82.948 115.422L82.688 114.456ZM88.832 111.128L88.1788 110.371L88.1784 110.371L88.832 111.128ZM89.6 79.384L88.9774 80.1666L88.9861 80.1733L89.6 79.384ZM53.248 79.384L52.8157 78.4823L52.8142 78.483L53.248 79.384ZM46.976 82.456L46.5288 81.5616L46.5203 81.5658L46.512 81.5702L46.976 82.456ZM43.904 75.288L43.1668 74.6123L43.1534 74.6269L43.1406 74.6421L43.904 75.288ZM57.216 66.712L56.8205 65.7935L56.8159 65.7955L57.216 66.712ZM76.544 62.744V63.744L76.5507 63.744L76.544 62.744ZM106.24 71.704L106.893 70.9462L106.89 70.9441L106.24 71.704ZM106.368 114.84L107.103 115.518L107.108 115.513L106.368 114.84ZM61.312 153.368H60.312C60.312 154.457 60.0493 155.364 59.5535 156.127C59.0544 156.895 58.2816 157.575 57.1755 158.142C54.9344 159.292 51.4456 159.92 46.592 159.92V160.92V161.92C51.5517 161.92 55.423 161.289 58.0885 159.922C59.4357 159.231 60.5029 158.337 61.2306 157.217C61.9614 156.092 62.312 154.796 62.312 153.368H61.312ZM46.592 160.92V159.92C45.6923 159.92 45.087 159.697 44.6722 159.352C44.2551 159.004 43.9149 158.436 43.7326 157.524L42.752 157.72L41.7714 157.916C42.0157 159.138 42.5289 160.169 43.3918 160.888C44.257 161.609 45.3583 161.92 46.592 161.92V160.92ZM42.752 157.72L43.7404 157.568C43.4104 155.423 43.24 152.41 43.24 148.504H42.24H41.24C41.24 152.449 41.4109 155.579 41.7636 157.872L42.752 157.72ZM42.24 148.504H43.24C43.24 140.349 44.8812 130.204 48.1968 118.047L47.232 117.784L46.2672 117.521C42.9268 129.769 41.24 140.104 41.24 148.504H42.24ZM47.232 117.784L48.1961 118.05C50.9608 108.012 53.8098 100.08 56.7344 94.2312C59.6743 88.3514 62.6246 84.7117 65.5176 83.0697L65.024 82.2L64.5304 81.3303C61.1087 83.2723 57.9363 87.3553 54.9456 93.3368C51.9395 99.3488 49.0499 107.418 46.2679 117.518L47.232 117.784ZM65.024 82.2L65.5385 83.0575C66.2318 82.6415 66.9917 82.432 67.84 82.432V81.432V80.432C66.6403 80.432 65.5229 80.7345 64.5095 81.3425L65.024 82.2ZM67.84 81.432V82.432C67.6413 82.432 67.8059 82.2254 68.0362 82.9741C68.2472 83.6597 68.376 84.7864 68.376 86.424H69.376H70.376C70.376 84.7336 70.2488 83.3643 69.9478 82.3859C69.6661 81.4706 69.0627 80.432 67.84 80.432V81.432ZM69.376 86.424H68.376C68.376 89.7197 68.2069 92.618 67.8728 95.1238L68.864 95.256L69.8552 95.3882C70.2038 92.774 70.376 89.7843 70.376 86.424H69.376ZM68.864 95.256L67.8728 95.1238C67.1954 100.204 65.9646 106.787 64.1756 114.88L65.152 115.096L66.1284 115.312C67.9234 107.192 69.1673 100.548 69.8552 95.3882L68.864 95.256ZM65.152 115.096L64.1735 114.89C63.3193 118.947 62.6769 122.18 62.2476 124.584C61.8248 126.952 61.592 128.601 61.592 129.432H62.592H63.592C63.592 128.812 63.7859 127.347 64.2164 124.936C64.6405 122.561 65.2781 119.351 66.1306 115.302L65.152 115.096ZM62.592 129.432L61.5934 129.379L60.3134 153.315L61.312 153.368L62.3106 153.421L63.5906 129.485L62.592 129.432ZM70.016 118.936H71.016C71.016 118.569 71.1103 118.348 71.2359 118.196C71.3701 118.033 71.6183 117.854 72.0827 117.722L71.808 116.76L71.5333 115.798C70.803 116.007 70.1553 116.362 69.6921 116.924C69.2203 117.497 69.016 118.193 69.016 118.936H70.016ZM71.808 116.76L72.0657 117.726C73.2923 117.399 74.8271 117.107 76.6791 116.855L76.544 115.864L76.4089 114.873C74.5062 115.133 72.8837 115.438 71.5503 115.794L71.808 116.76ZM76.544 115.864L76.7229 116.848C78.6323 116.501 80.7077 116.025 82.948 115.422L82.688 114.456L82.428 113.49C80.2309 114.082 78.2104 114.545 76.3651 114.88L76.544 115.864ZM82.688 114.456L82.948 115.422C85.3232 114.782 87.5037 113.597 89.4856 111.885L88.832 111.128L88.1784 110.371C86.4057 111.902 84.4901 112.935 82.428 113.49L82.688 114.456ZM88.832 111.128L89.4852 111.885C94.1523 107.859 96.36 101.238 96.36 92.312H95.36H94.36C94.36 100.965 92.2157 106.888 88.1788 110.371L88.832 111.128ZM95.36 92.312H96.36C96.36 86.4264 94.3379 81.8021 90.2139 78.5946L89.6 79.384L88.9861 80.1733C92.5421 82.9392 94.36 86.9336 94.36 92.312H95.36ZM89.6 79.384L90.2225 78.6014C86.2222 75.4193 80.503 73.904 73.216 73.904V74.904V75.904C80.265 75.904 85.4685 77.3754 88.9775 80.1666L89.6 79.384ZM73.216 74.904V73.904C65.9876 73.904 59.1834 75.4293 52.8157 78.4823L53.248 79.384L53.6803 80.2857C59.7713 77.3654 66.2791 75.904 73.216 75.904V74.904ZM53.248 79.384L52.8142 78.483C50.5066 79.594 48.4114 80.6203 46.5288 81.5616L46.976 82.456L47.4232 83.3504C49.2953 82.4144 51.3814 81.3926 53.6818 80.285L53.248 79.384ZM46.976 82.456L46.512 81.5702C44.8194 82.4567 43.3153 82.864 41.984 82.864V83.864V84.864C43.7247 84.864 45.5486 84.3326 47.44 83.3418L46.976 82.456ZM41.984 83.864V82.864C41.2853 82.864 40.9292 82.7514 40.7775 82.6587C40.7163 82.6214 40.7041 82.5971 40.7019 82.5931C40.6987 82.5873 40.68 82.552 40.68 82.456H39.68H38.68C38.68 83.2555 39.0381 83.9397 39.7345 84.3653C40.3509 84.7419 41.1467 84.864 41.984 84.864V83.864ZM39.68 82.456H40.68C40.68 82.0084 40.9152 81.2417 41.5975 80.0837C42.2614 78.9572 43.2778 77.5762 44.6674 75.9339L43.904 75.288L43.1406 74.6421C41.7142 76.3278 40.6186 77.8055 39.8745 79.0683C39.1488 80.2997 38.68 81.4529 38.68 82.456H39.68ZM43.904 75.288L44.6412 75.9637C47.3237 73.0373 51.6187 70.247 57.6161 67.6285L57.216 66.712L56.8159 65.7955C50.6959 68.4676 46.1163 71.3947 43.1668 74.6123L43.904 75.288ZM57.216 66.712L57.6115 67.6305C63.6296 65.0394 69.9376 63.744 76.544 63.744V62.744V61.744C69.6678 61.744 63.0904 63.094 56.8205 65.7935L57.216 66.712ZM76.544 62.744L76.5507 63.744C89.1127 63.6597 98.7475 66.6107 105.59 72.4639L106.24 71.704L106.89 70.9441C99.5672 64.68 89.4047 61.6577 76.5373 61.744L76.544 62.744ZM106.24 71.704L105.587 72.4618C111.501 77.5535 114.456 84.1412 114.456 92.312H115.456H116.456C116.456 83.5868 113.267 76.4358 106.893 70.9462L106.24 71.704ZM115.456 92.312H114.456C114.456 100.406 111.533 107.68 105.628 114.167L106.368 114.84L107.108 115.513C113.32 108.688 116.456 100.944 116.456 92.312H115.456ZM106.368 114.84L105.633 114.162C99.7681 120.522 92.4422 123.696 83.584 123.696V124.696V125.696C92.9871 125.696 100.851 122.299 107.103 115.518L106.368 114.84ZM83.584 124.696V123.696C79.1017 123.696 75.8723 123.216 73.7988 122.336C72.7724 121.9 72.082 121.388 71.6505 120.838C71.2306 120.304 71.016 119.684 71.016 118.936H70.016H69.016C69.016 120.108 69.3668 121.168 70.0775 122.074C70.7766 122.964 71.7822 123.652 73.0172 124.176C75.4663 125.216 79.021 125.696 83.584 125.696V124.696ZM182.434 150.808L183.141 151.515L183.146 151.51L182.434 150.808ZM161.826 159.384V160.384L161.837 160.384L161.826 159.384ZM141.986 152.6L142.502 151.743L141.81 151.327L141.257 151.915L141.986 152.6ZM110.242 157.208L109.512 157.891L109.512 157.891L110.242 157.208ZM111.266 136.984L111.826 137.813L111.831 137.809L111.266 136.984ZM130.978 134.04L130.868 135.034L131.978 135.157V134.04H130.978ZM134.434 103.576L135.408 103.803L135.585 103.044L134.892 102.687L134.434 103.576ZM127.138 98.712L126.464 99.4505L126.472 99.4576L126.479 99.4646L127.138 98.712ZM131.234 91.928L130.738 92.7962L130.762 92.81L130.787 92.8224L131.234 91.928ZM137.25 94.104L137.017 95.0764L137.898 95.288L138.195 94.4313L137.25 94.104ZM159.01 64.536L158.582 63.6322L158.576 63.635L159.01 64.536ZM182.178 96.024L182.871 96.7447L182.872 96.7436L182.178 96.024ZM151.458 106.264L151.433 105.264L150.578 105.286L150.466 106.134L151.458 106.264ZM149.154 139.8L148.173 139.604L148.025 140.344L148.697 140.689L149.154 139.8ZM157.858 144.024L157.444 144.934L157.444 144.934L157.858 144.024ZM174.498 143.256L173.855 142.49L173.847 142.497L173.839 142.503L174.498 143.256ZM180.386 137.368L179.635 136.707L179.628 136.716L179.62 136.725L180.386 137.368ZM185.378 131.48L186.155 132.109L186.155 132.109L185.378 131.48ZM153.378 95.256L152.405 95.0249L152.086 96.3671L153.461 96.2525L153.378 95.256ZM168.866 90.136L169.436 90.9576L169.439 90.9552L168.866 90.136ZM118.946 147.608L117.947 147.575L117.945 147.609L117.947 147.644L118.946 147.608ZM130.082 145.56L131.057 145.782L131.231 145.016L130.529 144.666L130.082 145.56ZM188.962 128.792V129.792C189.079 129.792 189.144 129.82 189.199 129.862C189.267 129.913 189.375 130.029 189.487 130.284C189.722 130.816 189.882 131.736 189.882 133.144H190.882H191.882C191.882 131.651 191.722 130.395 191.317 129.476C191.109 129.006 190.817 128.578 190.405 128.266C189.98 127.945 189.485 127.792 188.962 127.792V128.792ZM190.882 133.144H189.882C189.882 138.863 187.231 144.513 181.722 150.106L182.434 150.808L183.146 151.51C188.901 145.668 191.882 139.542 191.882 133.144H190.882ZM182.434 150.808L181.727 150.101C176.284 155.544 169.666 158.301 161.815 158.384L161.826 159.384L161.837 160.384C170.2 160.296 177.32 157.336 183.141 151.515L182.434 150.808ZM161.826 159.384V158.384C156.363 158.384 149.932 156.218 142.502 151.743L141.986 152.6L141.47 153.457C149.059 158.027 155.855 160.384 161.826 160.384V159.384ZM141.986 152.6L141.257 151.915C136.075 157.426 129.642 160.176 121.89 160.176V161.176V162.176C130.18 162.176 137.145 159.208 142.715 153.285L141.986 152.6ZM121.89 161.176V160.176C116.747 160.176 113.185 158.89 110.972 156.525L110.242 157.208L109.512 157.891C112.248 160.817 116.451 162.176 121.89 162.176V161.176ZM110.242 157.208L110.972 156.525C108.705 154.101 107.53 150.864 107.53 146.712H106.53H105.53C105.53 151.264 106.83 155.024 109.512 157.891L110.242 157.208ZM106.53 146.712H107.53C107.53 142.637 108.986 139.731 111.826 137.813L111.266 136.984L110.706 136.155C107.231 138.503 105.53 142.083 105.53 146.712H106.53ZM111.266 136.984L111.831 137.809C114.868 135.731 118.754 134.656 123.554 134.656V133.656V132.656C118.456 132.656 114.149 133.8 110.701 136.159L111.266 136.984ZM123.554 133.656V134.656C126.167 134.656 128.605 134.782 130.868 135.034L130.978 134.04L131.088 133.046C128.743 132.786 126.231 132.656 123.554 132.656V133.656ZM130.978 134.04H131.978C131.978 123.704 133.122 113.625 135.408 103.803L134.434 103.576L133.46 103.349C131.138 113.324 129.978 123.555 129.978 134.04H130.978ZM134.434 103.576L134.892 102.687C132.137 101.268 129.774 99.6901 127.797 97.9594L127.138 98.712L126.479 99.4646C128.598 101.318 131.099 102.983 133.976 104.465L134.434 103.576ZM127.138 98.712L127.812 97.9735C126.859 97.1034 126.182 96.3598 125.75 95.7402C125.305 95.1018 125.194 94.6989 125.194 94.488H124.194H123.194C123.194 95.3011 123.573 96.1142 124.11 96.8838C124.659 97.6722 125.454 98.5286 126.464 99.4505L127.138 98.712ZM124.194 94.488H125.194C125.194 93.1648 125.343 92.3078 125.558 91.8168C125.661 91.5826 125.756 91.4831 125.808 91.4434C125.847 91.4138 125.892 91.392 125.986 91.392V90.392V89.392C125.483 89.392 125.005 89.5409 124.596 89.8526C124.2 90.1543 123.922 90.5667 123.726 91.0152C123.343 91.8896 123.194 93.0806 123.194 94.488H124.194ZM125.986 90.392V91.392C127.486 91.392 129.065 91.8405 130.738 92.7962L131.234 91.928L131.73 91.0598C129.819 89.9674 127.9 89.392 125.986 89.392V90.392ZM131.234 91.928L130.787 92.8224C132.735 93.7966 134.813 94.5474 137.017 95.0764L137.25 94.104L137.483 93.1316C135.421 92.6366 133.487 91.9367 131.681 91.0336L131.234 91.928ZM137.25 94.104L138.195 94.4313C143.447 79.2669 150.575 69.707 159.444 65.437L159.01 64.536L158.576 63.635C149.013 68.2397 141.634 78.3918 136.305 93.7767L137.25 94.104ZM159.01 64.536L159.438 65.4397C162.547 63.967 165.814 63.232 169.25 63.232V62.232V61.232C165.518 61.232 161.958 62.0329 158.582 63.6323L159.01 64.536ZM169.25 62.232V63.232C175.875 63.232 180.658 64.6298 183.774 67.253C186.857 69.8485 188.474 73.785 188.474 79.256H189.474H190.474C190.474 73.3777 188.72 68.8022 185.062 65.723C181.437 62.6715 176.107 61.232 169.25 61.232V62.232ZM189.474 79.256H188.474C188.474 85.4573 186.162 90.7906 181.484 95.3044L182.178 96.024L182.872 96.7436C187.922 91.8707 190.474 86.0253 190.474 79.256H189.474ZM182.178 96.024L181.485 95.3033C174.992 101.549 165.037 104.926 151.433 105.264L151.458 106.264L151.483 107.264C165.356 106.919 175.881 103.469 182.871 96.7447L182.178 96.024ZM151.458 106.264L150.466 106.134C149.521 113.357 149.05 121.893 149.05 131.736H150.05H151.05C151.05 121.952 151.518 113.507 152.45 106.394L151.458 106.264ZM150.05 131.736H149.05C149.05 134.044 148.761 136.665 148.173 139.604L149.154 139.8L150.135 139.996C150.741 136.962 151.05 134.206 151.05 131.736H150.05ZM149.154 139.8L148.697 140.689C151.696 142.232 154.612 143.647 157.444 144.934L157.858 144.024L158.272 143.114C155.472 141.841 152.585 140.44 149.611 138.911L149.154 139.8ZM157.858 144.024L157.444 144.934C160.425 146.289 164.031 146.944 168.226 146.944V145.944V144.944C164.229 144.944 160.923 144.319 158.272 143.114L157.858 144.024ZM168.226 145.944V146.944C170.662 146.944 172.978 145.915 175.157 144.009L174.498 143.256L173.839 142.503C171.922 144.181 170.056 144.944 168.226 144.944V145.944ZM174.498 143.256L175.141 144.022C177.319 142.192 179.322 140.189 181.152 138.011L180.386 137.368L179.62 136.725C177.866 138.814 175.944 140.736 173.855 142.49L174.498 143.256ZM180.386 137.368L181.137 138.029C183.021 135.887 184.694 133.914 186.155 132.109L185.378 131.48L184.601 130.851C183.16 132.63 181.506 134.582 179.635 136.707L180.386 137.368ZM185.378 131.48L186.155 132.109C186.854 131.247 187.456 130.643 187.962 130.264C188.481 129.875 188.803 129.792 188.962 129.792V128.792V127.792C188.182 127.792 187.437 128.157 186.762 128.664C186.073 129.181 185.353 129.921 184.601 130.851L185.378 131.48ZM168.994 74.776V73.776C165.035 73.776 161.669 75.6832 158.919 79.2897C156.194 82.8629 154.041 88.138 152.405 95.0249L153.378 95.256L154.351 95.4871C155.958 88.7207 158.029 83.7557 160.509 80.5023C162.965 77.2821 165.785 75.776 168.994 75.776V74.776ZM153.378 95.256L153.461 96.2525C159.743 95.729 165.083 93.9781 169.436 90.9576L168.866 90.136L168.296 89.3144C164.286 92.0965 159.301 93.759 153.295 94.2595L153.378 95.256ZM168.866 90.136L169.439 90.9552C173.778 87.9182 176.266 84.6707 176.266 81.176H175.266H174.266C174.266 83.6546 172.487 86.3805 168.293 89.3168L168.866 90.136ZM175.266 81.176H176.266C176.266 78.8935 175.707 76.997 174.412 75.6761C173.114 74.3513 171.244 73.776 168.994 73.776V74.776V75.776C170.925 75.776 172.191 76.2673 172.984 77.0759C173.78 77.8883 174.266 79.1918 174.266 81.176H175.266ZM118.946 147.608L117.947 147.644C117.998 149.089 118.547 150.299 119.675 151.108C120.75 151.88 122.22 152.192 123.938 152.192V151.192V150.192C122.413 150.192 121.43 149.906 120.841 149.484C120.305 149.098 119.979 148.516 119.945 147.572L118.946 147.608ZM123.938 151.192V152.192C125.765 152.192 127.343 151.657 128.582 150.521C129.803 149.401 130.602 147.783 131.057 145.782L130.082 145.56L129.107 145.338C128.708 147.092 128.057 148.289 127.23 149.047C126.421 149.789 125.354 150.192 123.938 150.192V151.192ZM130.082 145.56L130.529 144.666C128.089 143.446 125.961 142.768 124.194 142.768V143.768V144.768C125.499 144.768 127.296 145.285 129.635 146.454L130.082 145.56ZM124.194 143.768V142.768C122.388 142.768 120.851 143.102 119.731 143.921C118.562 144.776 117.997 146.05 117.947 147.575L118.946 147.608L119.945 147.641C119.98 146.606 120.332 145.96 120.913 145.535C121.543 145.074 122.586 144.768 124.194 144.768V143.768Z" fill="url(#paint2_linear_35_50)" mask="url(#path-2-outside-1_35_50)"/>
<defs>
<linearGradient id="paint0_linear_35_50" x1="112.5" y1="0" x2="112.5" y2="225" gradientUnits="userSpaceOnUse">
<stop stop-color="#51BDFF"/>
<stop offset="1" stop-color="#BD34FE"/>
</linearGradient>
<linearGradient id="paint1_linear_35_50" x1="106.5" y1="27" x2="106.5" y2="199" gradientUnits="userSpaceOnUse">
<stop stop-color="#FFE14D"/>
<stop offset="1" stop-color="#FDAC0F"/>
</linearGradient>
<linearGradient id="paint2_linear_35_50" x1="106.5" y1="27" x2="106.5" y2="199" gradientUnits="userSpaceOnUse">
<stop stop-color="#51BDFF"/>
<stop offset="1" stop-color="#BD34FE"/>
</linearGradient>
</defs>
</svg>
